<?xml version="1.0" encoding="utf-8"?>
<svg viewBox="0 0 500 500" xmlns="http://www.w3.org/2000/svg" xmlns:bx="https://boxy-svg.com">
  <path d="M 77.05 124.148 C 76.5 122.458 74.789 124.916 76.467 125.467 C 76.649 125.308 77.732 124.667 77.05 124.148 Z" fill="#D0D0D0" bx:origin="-252.524 50.417"/>
  <path d="M 161.79 161.76 C 160.412 162.394 161.935 164.14 162.773 163.316 C 162.904 163.213 162.995 163.068 163.032 162.906 C 163.079 162.757 163.083 162.598 163.044 162.448 C 162.946 161.918 162.486 161.44 161.79 161.76" fill="#959595" bx:origin="-256.485 30.846"/>
  <path d="M 122.35 113.169 L 122.498 112.34 C 122.116 112.366 122 113.012 122.35 113.169 Z M 189.547 161.029 C 187.715 160.864 187.211 162.952 189.173 162.952 C 190.967 162.133 189.894 161.029 189.547 161.029 Z" fill="#D0D0D0" bx:origin="-6.342 2.118"/>
  <path d="M 156.773 190.493 C 156.862 190.241 156.668 189.957 156.423 189.875 L 156.474 189.737 C 156.12 189.66 155.758 190.013 155.793 190.358 C 155.788 190.374 155.781 190.388 155.776 190.402 C 155.672 190.745 155.639 191.158 155.877 191.422 C 156.19 191.767 156.831 191.487 156.927 191.072 C 156.992 190.892 156.978 190.687 156.845 190.547 C 156.824 190.523 156.798 190.509 156.773 190.493 Z" fill="#959595" bx:origin="-366.873 16.099"/>
  <path d="M 66.546 187.999 C 66.344 187.905 66.108 187.925 65.925 188.052 C 65.884 188.172 65.89 188.304 65.941 188.421 C 65.892 188.635 65.96 188.883 66.151 188.993 C 66.286 189.072 66.454 189.049 66.59 188.971 C 66.618 188.988 66.65 189.002 66.686 189.013 C 66.829 188.881 66.905 188.692 66.891 188.498 C 66.915 188.456 66.935 188.411 66.949 188.365 L 67.082 188.173 C 67.026 188.136 66.963 188.112 66.898 188.103 C 66.791 188.039 66.67 188.003 66.546 187.999 Z M 333.451 99.321 C 333.596 99.332 334.303 99.781 334.464 99.001 C 334.256 98.523 333.346 98.81 333.451 99.321 Z" fill="#D0D0D0" bx:origin="-1.397 1.338"/>
  <path d="M 350.997 75.611 C 349.826 74.785 349.177 77.271 350.64 77.202 C 351.678 77.153 351.641 76.066 350.997 75.611" fill="#959595" bx:origin="-371.131 81.831"/>
  <path d="M 144.685 172.842 C 138.574 172.842 135.104 175.012 129.432 178.18 C 129.423 178.069 129.419 177.959 129.42 177.849 C 129.42 177.026 129.614 176.034 129.614 175.112 C 129.614 172.961 128.095 171.846 126.181 171.846 C 123.997 171.846 121.443 173.206 120.003 174.17 C 119.828 173.794 116.703 158.804 108.868 158.804 C 107.004 158.804 105.375 159.602 103.943 160.823 C 101.418 164.029 99.402 169.186 98.807 175.602 C 96.777 174.142 94.588 173.5 92.304 173.5 C 88.045 173.5 83.465 175.735 79.001 179.065 C 83.281 177.838 87.833 177.1 92.119 177.1 C 102.393 177.1 112.746 183.155 127.705 183.155 C 134.012 183.155 140.578 182.182 146.85 180.47 C 147.973 178.904 148.973 177.296 149.594 175.854 C 149.365 173.4 147.352 172.842 144.685 172.842" fill="#1B1F23" bx:origin="-5.502 2.494"/>
  <path d="M 146.93 170.868 C 140.271 170.868 133.651 175.628 129.763 177.604 C 130.277 176.253 130.508 175.147 130.508 174.258 C 130.508 171.899 128.886 171.038 126.571 171.038 C 124.856 171.038 122.759 171.514 120.661 172.202 C 118.897 164.252 115.661 157.202 109.89 157.202 C 107.867 157.202 105.77 158.502 103.941 160.822 C 105.375 159.602 107.004 158.804 108.868 158.804 C 116.704 158.804 119.826 173.794 120.001 174.169 C 121.44 173.206 123.995 171.845 126.179 171.845 C 128.093 171.845 129.614 172.96 129.614 175.112 C 129.614 176.034 129.42 177.025 129.42 177.849 C 129.421 177.963 129.423 178.073 129.432 178.18 C 135.102 175.012 138.574 172.842 144.685 172.842 C 147.352 172.842 149.366 173.399 149.592 175.854 C 150.001 174.902 150.245 174.022 150.245 173.276 C 150.245 171.82 149.326 170.868 146.93 170.868 Z M 257.627 140.414 C 259.859 137.218 263.045 133.302 266.937 133.302 C 272.504 133.302 273.829 139.215 275.747 144.208 C 279.889 137.922 284.371 130.928 291.945 130.928 C 296.36 130.928 300.854 133.235 303.971 136.539 C 301.817 131.9 298.149 128.549 292.909 128.549 C 285.265 128.549 280.307 135.225 277.133 140.893 C 274.977 133.62 271.853 130.19 268.166 130.19 C 265.163 130.19 261.791 132.462 258.259 136.784 C 258.005 123.08 254.371 104.091 243.995 104.091 C 237.308 104.091 231.946 108.931 227.939 116.468 C 231.985 112.372 237.243 109.883 240.645 109.883 C 251.163 109.883 254.841 135.663 257.627 140.414" fill="#24292E" bx:origin="-2.066 1.558"/>
  <path d="M 291.945 130.927 C 284.371 130.927 279.889 137.922 275.747 144.208 C 273.829 139.215 272.504 133.302 266.937 133.302 C 263.045 133.302 259.859 137.218 257.627 140.414 C 254.841 135.664 251.163 109.883 240.645 109.883 C 237.243 109.883 231.985 112.373 227.939 116.467 C 222.4 126.888 219.455 142.459 219.192 157.518 C 239.408 157.014 260.671 148.803 293.184 148.803 C 297.513 148.803 301.862 148.964 306.255 149.311 C 306.274 148.796 306.283 148.278 306.283 147.762 C 306.283 143.861 305.516 139.868 303.971 136.539 C 300.854 133.235 296.36 130.927 291.945 130.927 Z M 185.939 206.842 C 189.108 196.418 186.758 185.384 175.316 185.384 C 167.86 185.384 162.697 193.012 160.669 198.516 C 158.716 196.78 156.598 195.866 154.442 195.866 C 151.796 195.866 149.089 197.244 146.56 200.166 C 145.045 197.888 142.383 195.208 136.89 195.208 C 130.424 195.208 125.954 199.176 124.698 202.924 C 124.628 203.132 124.566 203.339 124.51 203.544 C 127.66 203.409 130.813 203.341 133.966 203.342 C 157.321 203.342 171.486 206.638 185.939 206.842" fill="#1B1F23" bx:origin="-2.387 1.131"/>
  <path fill-rule="evenodd" clip-rule="evenodd" d="M 162.338 222.725 L 187.622 233.542 L 187.396 234.069 L 162.113 223.252 L 162.338 222.725 Z" fill="#24292E" bx:origin="-18.484 -0.282"/>
  <path d="M 207.654 235.12 L 185.685 223.943 L 186.264 221.85 L 208.23 233.026 L 207.654 235.12 Z" fill="#24292E" bx:origin="-21.959 -0.175"/>
  <path d="M 187.644 235.311 L 187.494 234.674 L 208.483 225.567 L 208.634 226.206 L 187.644 235.311 Z M 206.754 234.536 L 206.598 233.902 L 232.414 222.142 L 232.57 222.779 L 206.754 234.536 Z M 186.737 233.29 L 186.462 232.002 L 209.065 223.112 L 209.34 224.4 L 186.737 233.29 Z" fill="#24292E" bx:origin="-10.754 -0.199"/>
  <path fill-rule="evenodd" clip-rule="evenodd" d="M 166.824 215.859 L 168.593 215.859 L 168.593 216.853 L 166.824 216.853 L 166.824 215.859 Z" fill="#24292E" bx:origin="-269.192 3.689"/>
  <path d="M 226.503 216.715 L 226.503 216.855 L 228.271 216.855 L 228.271 215.861 L 226.503 215.861" fill="#24292E" bx:origin="-303.105 3.687"/>
  <path fill-rule="evenodd" clip-rule="evenodd" d="M 166.824 214.867 L 168.593 214.867 L 168.593 215.861 L 166.824 215.861 L 166.824 214.867 Z M 226.504 214.867 L 228.272 214.867 L 228.272 215.861 L 226.504 215.861 L 226.504 214.867 Z" fill="#444D56" bx:origin="-7.75 4.687"/>
  <path d="M 228.272 235.325 L 228.272 233.195 L 234.04 233.195 L 234.023 235.325 L 228.272 235.325 Z M 221.948 230.082 L 211.973 225.165 L 226.503 225.165 L 226.503 230.082 L 221.948 230.082 Z M 168.592 230.082 L 168.592 225.165 L 183.124 225.165 L 173.149 230.082 L 168.592 230.082 Z M 166.826 235.325 L 161.074 235.325 L 161.058 233.195 L 166.826 233.195 L 166.826 235.325 Z M 239.133 232.168 L 239.133 235.325 L 234.814 235.325 L 234.625 222.727 L 234.119 222.727 L 234.06 230.082 L 228.272 230.082 L 228.272 225.165 L 229.644 225.165 L 229.644 222.727 L 228.272 222.753 L 228.272 216.714 L 226.503 216.714 L 226.503 222.79 L 197.548 223.376 L 168.592 222.79 L 168.592 216.714 L 166.826 216.714 L 166.826 222.753 L 165.454 222.727 L 165.454 225.165 L 166.826 225.165 L 166.826 230.082 L 161.034 230.082 L 160.978 222.727 L 160.472 222.727 L 160.283 235.325 L 155.964 235.325 L 155.964 232.168 L 154.758 232.168 L 154.758 242.719 L 155.964 242.719 L 155.964 236.881 L 160.26 236.881 L 160.166 242.719 L 161.13 242.719 L 161.088 236.881 L 166.826 236.881 L 166.826 242.719 L 168.592 242.719 L 168.592 233.195 L 173.149 233.195 L 173.149 233.041 L 186.806 225.907 L 188.507 241.884 L 191.307 241.884 L 188.672 225.165 L 206.424 225.165 L 203.79 241.884 L 206.59 241.884 L 208.291 225.907 L 221.948 233.041 L 221.948 233.195 L 226.503 233.195 L 226.503 242.719 L 228.272 242.719 L 228.272 236.881 L 234.009 236.881 L 233.967 242.719 L 234.931 242.719 L 234.835 236.881 L 239.133 236.881 L 239.133 242.719 L 240.337 242.719 L 240.337 232.168 L 239.133 232.168 Z" fill="#24292E" bx:origin="-5.424 0.108"/>
  <path d="M 231.441 145.741 C 231.441 148.375 226.805 150.505 221.076 150.505 M 186.966 141.281 C 186.966 143.912 182.332 146.045 176.603 146.045 L 186.966 141.281 Z" stroke="#444D56" stroke-width=".801" stroke-miterlimit="10" bx:origin="-8.862 8.483"/>
  <path d="M 176.514 133.515 L 174.412 133.592 L 177.588 223.945 L 183.244 223.654 L 176.514 133.514 L 176.514 133.515 Z" fill="#2F363D" bx:origin="-54.778 0.951"/>
  <path d="M 186.789 141.281 L 186.789 143.079 L 176.461 143.663 L 176.107 141.281 L 186.789 141.281 Z M 186.789 149.136 L 186.789 150.935 L 176.461 150.935 L 176.242 148.924 L 186.789 149.136 Z M 186.435 158.476 L 186.435 160.274 L 177.022 160.19 L 176.737 158.347 L 186.435 158.475 L 186.435 158.476 Z M 186.789 164.849 L 186.789 166.647 L 177.589 166.647 L 177.376 164.849 L 186.789 164.849 Z M 187.938 175.655 L 188.268 177.423 L 178.652 179.32 L 178.437 176.488 L 187.938 175.655 Z M 172.331 133.591 L 170.326 223.945 L 177.588 223.945 L 174.412 133.591 L 172.331 133.591 Z" fill="#24292E" bx:origin="-26.737 0.951"/>
  <path fill-rule="evenodd" clip-rule="evenodd" d="M 174.123 179.981 L 177.385 179.981 L 177.385 182.567 L 174.123 182.567 L 174.123 179.981 Z" fill="#444D56" bx:origin="-148.224 15.292"/>
  <path fill-rule="evenodd" clip-rule="evenodd" d="M 170.413 168.992 L 173.372 168.992 L 173.372 179.856 L 170.413 179.856 L 170.413 168.992 Z" fill="#2F363D" bx:origin="-162.147 4.651"/>
  <path fill-rule="evenodd" clip-rule="evenodd" d="M 170.81 172.575 L 173.769 172.575 L 173.769 175.159 L 170.81 175.159 L 170.81 172.575 Z M 169.818 165.97 L 177.397 165.97 L 177.397 166.934 L 169.818 166.934 L 169.818 165.97 Z M 169.744 161.023 L 173.398 161.023 L 173.398 164.416 L 169.744 164.416 L 169.744 161.023 Z" fill="#444D56" bx:origin="-62.608 4.139"/>
  <path fill-rule="evenodd" clip-rule="evenodd" d="M 173.377 157.633 L 177.029 157.633 L 177.029 161.025 L 173.377 161.025 L 173.377 157.633 Z" fill="#1B1F23" bx:origin="-132.193 18.247"/>
  <path d="M 195.836 218.984 L 209.059 218.984 L 210.177 213.186 L 194.359 213.186 L 195.836 218.984 Z" fill="#24292E" bx:origin="-31.846 1.093"/>
  <path fill-rule="evenodd" clip-rule="evenodd" d="M 193.874 210.689 L 211.516 210.689 L 211.516 216.077 L 193.874 216.077 L 193.874 210.689 Z" fill="#2F363D" bx:origin="-28.526 1.64"/>
  <path d="M 133.698 177.537 L 123.18 177.537 L 123.18 173.423 C 123.179 169.618 126.263 166.534 130.068 166.535 L 131.118 166.535 C 131.801 166.536 132.457 166.807 132.942 167.29 C 133.425 167.773 133.697 168.429 133.698 169.113 L 133.698 177.537 Z" fill="#2F363D" bx:origin="-41.126 4.816"/>
  <path fill-rule="evenodd" clip-rule="evenodd" d="M 132.802 168.53 L 134.706 168.53 L 134.706 173.548 L 132.802 173.548 L 132.802 168.53 Z" fill="#6A737D" bx:origin="-232.244 10.163"/>
  <path fill-rule="evenodd" clip-rule="evenodd" d="M 130.594 170.184 L 130.926 170.184 L 130.926 178.258 L 130.594 178.258 L 130.594 170.184 Z" fill="#444D56" bx:origin="-1325.367 6.111"/>
  <path d="M 129.656 170.111 C 129.656 170.463 129.941 170.751 130.293 170.755 L 130.293 169.467 C 129.94 169.471 129.657 169.758 129.656 170.111" fill="#586069" bx:origin="-689.278 38.866"/>
  <path d="M 131.212 169.465 L 130.293 169.465 L 130.293 170.755 L 131.212 170.755 L 131.212 169.465 Z" fill="#B6BFC4" bx:origin="-478.431 38.807"/>
  <path d="M 131.266 169.465 L 131.215 169.465 L 131.215 170.755 L 131.266 170.755 C 131.35 170.755 131.434 170.738 131.513 170.706 C 131.672 170.642 131.798 170.516 131.863 170.358 C 132.039 169.932 131.726 169.464 131.266 169.465 Z" fill="#586069" bx:origin="-631.46 38.807"/>
  <path d="M 238.897 144.559 L 234.328 144.559 L 234.328 139.942 C 234.326 139.517 234.495 139.109 234.797 138.81 C 235.096 138.509 235.504 138.34 235.929 138.341 L 236.771 138.341 C 237.654 138.34 238.37 139.057 238.369 139.941 L 238.897 144.559 Z" fill="#2F363D" bx:origin="-119.002 13.056"/>
  <path d="M 235.204 140.013 L 233.838 140.013 L 233.838 140.862 L 235.266 140.862 C 235.207 140.582 235.186 140.296 235.204 140.012 L 235.204 140.013 Z" fill="#6A737D" bx:origin="-380.416 93.545"/>
  <path fill-rule="evenodd" clip-rule="evenodd" d="M 235.266 140.013 L 236.269 140.013 L 236.269 140.863 L 235.266 140.863 L 235.266 140.013 Z M 236.288 139.102 L 238.719 139.102 L 238.719 139.393 L 236.288 139.393 L 236.288 139.102 Z" fill="#B6BFC4" bx:origin="-157.734 45.669"/>
  <path d="M 211.949 213.059 L 220.822 220.441 L 224.42 220.441 L 211.958 211.838 C 211.956 212.242 211.951 212.648 211.949 213.059 M 213.312 179.393 L 211.433 179.393 C 211.433 179.393 212.124 190.346 211.959 211.838 L 215.123 214.022 C 218.461 207.087 221.497 199.978 222.664 192.691 C 220.333 184.951 216.677 180.028 213.312 179.393" fill="#2F363D" bx:origin="-40.103 0.978"/>
  <path d="M 222.664 192.691 C 221.497 199.978 218.461 207.088 215.124 214.022 L 224.42 220.442 C 225.851 209.54 224.834 199.894 222.664 192.691" fill="#444D56" bx:origin="-52.661 0.967"/>
  <path d="M 202.614 113.933 C 199.004 117.006 196.004 120.284 193.523 123.723 C 189.307 141.193 186.526 159.688 192.681 176.667 C 190.11 178.728 187.977 181.226 186.073 183.954 C 188.31 194.783 191.346 204.858 193.278 213.058 L 208.536 213.058 C 199.499 168.57 202.614 113.933 202.614 113.933" fill="#24292E" bx:origin="-22.057 1.065"/>
  <path d="M 192.681 176.668 C 186.525 159.688 189.307 141.191 193.523 123.725 C 180.55 141.733 181.971 164.11 186.073 183.955 C 187.977 181.227 190.107 178.726 192.681 176.668 Z" fill="#2F363D" bx:origin="-47.653 1.591"/>
  <path d="M 202.614 113.933 C 202.614 113.933 199.499 168.57 208.536 213.058 L 211.95 213.058 C 218.093 186.962 235.435 141.875 202.614 113.933" fill="#444D56" bx:origin="-25.645 1.065"/>
  <path d="M 246.122 132.361 C 245.718 132.108 245.185 132.261 244.976 132.689 C 244.858 132.912 244.836 133.174 244.914 133.415 C 244.984 133.63 245.124 133.809 245.308 133.919 C 245.511 134.041 245.758 134.066 245.982 133.987 C 246.183 133.914 246.349 133.767 246.446 133.577 C 246.557 133.356 246.578 133.101 246.505 132.865 C 246.442 132.656 246.306 132.477 246.122 132.361 Z M 247.352 132.953 C 247.378 133.196 247.356 133.441 247.291 133.672 C 247.102 134.342 246.563 134.829 245.912 134.915 C 245.68 134.946 245.444 134.925 245.222 134.855 C 244.573 134.647 244.097 134.05 244.018 133.329 C 243.988 133.076 244.009 132.82 244.08 132.577 C 244.284 131.891 244.853 131.409 245.52 131.347 C 245.754 131.327 245.984 131.357 246.206 131.437 C 246.832 131.665 247.277 132.257 247.352 132.953" fill="#2F363D" bx:origin="-164.8 24.578"/>
  <path d="M 244.014 158.638 C 243.738 158.467 243.402 158.428 243.095 158.531 C 242.817 158.624 242.585 158.821 242.449 159.081 C 242.29 159.384 242.26 159.738 242.365 160.064 C 242.458 160.355 242.652 160.598 242.904 160.747 C 243.182 160.912 243.52 160.945 243.826 160.838 C 244.098 160.74 244.323 160.541 244.456 160.283 C 244.61 159.985 244.64 159.638 244.54 159.319 C 244.452 159.036 244.265 158.794 244.014 158.639 L 244.014 158.638 Z M 245.694 159.438 C 245.73 159.766 245.702 160.097 245.613 160.413 C 245.354 161.317 244.621 161.977 243.728 162.096 C 243.412 162.138 243.09 162.109 242.787 162.012 C 241.9 161.734 241.247 160.922 241.14 159.947 C 241.1 159.607 241.13 159.261 241.228 158.932 C 241.504 158.003 242.281 157.35 243.193 157.269 C 243.511 157.241 243.831 157.282 244.131 157.389 C 244.983 157.698 245.592 158.501 245.694 159.439" fill="#444D56" bx:origin="-120.031 12.827"/>
  <path d="M 243.126 135.245 C 242.898 135.147 242.64 135.147 242.412 135.245 C 242.218 135.328 242.066 135.485 241.99 135.682 C 241.906 135.9 241.922 136.143 242.034 136.349 C 242.134 136.536 242.3 136.681 242.498 136.759 C 242.716 136.85 242.963 136.85 243.182 136.759 C 243.607 136.588 243.795 136.091 243.59 135.682 C 243.493 135.485 243.328 135.33 243.126 135.245 Z M 244.503 135.677 C 244.552 135.903 244.552 136.135 244.503 136.356 C 244.365 136.976 243.861 137.446 243.222 137.569 C 242.996 137.613 242.763 137.613 242.538 137.569 C 241.885 137.446 241.336 136.977 241.14 136.356 C 241.07 136.136 241.047 135.905 241.075 135.677 C 241.157 135.01 241.656 134.471 242.351 134.324 C 242.597 134.273 242.852 134.273 243.098 134.324 C 243.805 134.471 244.355 135.01 244.503 135.677 Z M 112.416 164.613 C 112.188 164.516 111.93 164.516 111.702 164.613 C 111.508 164.696 111.356 164.853 111.28 165.05 C 111.198 165.268 111.214 165.511 111.326 165.717 C 111.427 165.904 111.591 166.05 111.79 166.128 C 112.009 166.216 112.254 166.216 112.474 166.128 C 112.663 166.05 112.815 165.903 112.899 165.717 C 112.992 165.503 112.986 165.258 112.882 165.05 C 112.784 164.853 112.618 164.697 112.416 164.613 Z M 113.792 165.043 C 113.844 165.271 113.844 165.503 113.795 165.724 C 113.657 166.343 113.153 166.811 112.514 166.937 C 112.288 166.979 112.056 166.979 111.83 166.937 C 111.177 166.811 110.628 166.343 110.43 165.724 C 110.361 165.503 110.34 165.271 110.367 165.043 C 110.449 164.375 110.948 163.839 111.641 163.692 C 111.888 163.641 112.142 163.641 112.388 163.692 C 113.097 163.839 113.648 164.375 113.792 165.043 Z M 105.523 192.636 C 105.56 192.219 105.422 191.806 105.143 191.496 C 104.903 191.23 104.568 191.071 104.211 191.054 C 103.814 191.039 103.431 191.197 103.161 191.488 C 102.914 191.749 102.767 192.09 102.746 192.45 C 102.718 192.848 102.849 193.241 103.11 193.544 C 103.337 193.805 103.655 193.969 103.999 194.002 C 104.394 194.035 104.783 193.893 105.065 193.614 C 105.332 193.355 105.495 193.007 105.523 192.636 Z M 105.563 195.068 C 105.227 195.268 104.852 195.394 104.463 195.436 C 103.393 195.548 102.368 194.998 101.827 194.039 C 101.637 193.701 101.513 193.33 101.463 192.947 C 101.313 191.836 101.78 190.709 102.674 190.06 C 102.992 189.831 103.354 189.671 103.738 189.592 C 104.858 189.365 105.989 189.874 106.596 190.903 C 106.811 191.264 106.946 191.67 106.995 192.098 C 107.133 193.306 106.559 194.478 105.563 195.068 Z M 109.995 172.926 C 110.112 172.736 110.143 172.505 110.081 172.292 C 110.025 172.106 109.896 171.95 109.724 171.862 C 109.627 171.814 109.522 171.786 109.415 171.78 C 109.106 171.769 108.816 171.929 108.66 172.196 C 108.55 172.379 108.521 172.599 108.581 172.805 C 108.631 172.984 108.75 173.137 108.912 173.23 C 109.1 173.338 109.327 173.36 109.533 173.29 C 109.726 173.228 109.89 173.099 109.995 172.926 Z M 109.432 174.104 C 109.218 174.122 109.003 174.097 108.8 174.028 C 108.245 173.837 107.859 173.331 107.822 172.746 C 107.81 172.54 107.838 172.334 107.904 172.14 C 108.103 171.563 108.598 171.139 109.199 171.032 C 109.412 170.994 109.631 170.999 109.838 171.05 C 110.446 171.196 110.892 171.716 110.944 172.34 C 110.962 172.565 110.932 172.792 110.856 173.006 C 110.633 173.616 110.079 174.044 109.432 174.104 Z M 194.541 177.576 C 194.541 177.576 191.001 193.498 194.025 211.241 L 185.151 220.171 L 182.179 216.822 L 186.638 186.312 L 190.628 179.114 C 190.628 179.114 192.34 177.65 194.541 177.576 Z" fill="#2F363D" bx:origin="-2.871 0.992"/>
  <path d="M 185.152 220.172 C 185.152 197.485 189.352 177.577 194.541 177.577 L 192.662 177.577 C 186.164 178.802 178.586 197.562 181.554 220.172 L 185.152 220.172 Z" fill="#24292E" bx:origin="-35.917 0.985"/>
  <path d="M 236.777 149.359 L 239.759 150.041 C 239.246 155.571 236.922 161.005 241.785 159.579 L 242.086 160.601 C 235.937 162.405 236.189 155.498 236.777 149.359" fill="#444D56" bx:origin="-97.602 6.084"/>
  <path d="M 245.535 140.358 C 243.225 139.826 242.613 139.102 242.695 136.993 L 243.171 137.009 C 243.101 138.876 243.56 139.415 245.641 139.893 L 245.535 140.358 Z M 106.148 192.631 L 106.2 191.565 C 113.034 191.893 116.768 192.036 116.485 184.935 L 118.758 185.383 C 119.092 193.749 110.773 192.853 106.148 192.631 Z M 115.686 166.72 L 115.686 176.628 L 114.738 176.628 L 114.738 166.708 C 115.112 166.506 115.686 166.72 115.686 166.72 Z" fill="#2F363D" bx:origin="-2.979 1.48"/>
  <path fill-rule="evenodd" clip-rule="evenodd" d="M 232.157 146.546 L 232.157 136.639 L 233.104 136.639 L 233.104 146.546 L 232.157 146.546 Z M 245.015 143.402 L 245.238 134.581 L 246.183 134.605 L 245.959 143.425 L 245.015 143.402 Z" fill="#2F363D" bx:origin="-38.61 7.099"/>
  <path fill-rule="evenodd" clip-rule="evenodd" d="M 121.432 191.604 L 131.759 191.604 L 131.759 193.403 L 121.432 193.403 L 121.432 191.604 Z" fill="#24292E" bx:origin="-41.718 15.521"/>
  <path fill-rule="evenodd" clip-rule="evenodd" d="M 241.386 170.697 L 246.729 170.697 L 246.729 172.496 L 241.386 172.496 L 241.386 170.697 Z M 131.722 199.82 L 134.545 199.82 L 134.545 201.618 L 131.722 201.618 L 131.722 199.82 Z M 251.848 159.1 L 254.177 159.1 L 254.177 161.448 L 251.848 161.448 L 251.848 159.101 L 251.848 159.1 Z" fill="#444D56" bx:origin="-3.602 1.421"/>
  <path d="M 113.054 176.603 C 112.876 173.163 112.704 169.731 112.722 166.303 L 111.775 166.296 C 111.766 167.675 111.789 169.052 111.833 170.429 C 111.773 171.292 111.614 172.001 111.241 172.3 C 111.033 172.466 110.746 172.498 110.363 172.4 L 110.186 173.089 C 110.389 173.14 110.578 173.166 110.758 173.166 C 111.115 173.166 111.425 173.063 111.684 172.858 C 111.768 172.787 111.845 172.708 111.913 172.622 C 111.971 173.968 112.039 175.31 112.106 176.652 L 113.054 176.603 Z" fill="#2F363D" bx:origin="-146.293 5.14"/>
  <path fill-rule="evenodd" clip-rule="evenodd" d="M 162.025 213.878 L 164.069 213.878 L 164.069 214.946 L 162.025 214.946 L 162.025 213.878 Z" fill="#B3B3B3" bx:origin="-230.632 5.288"/>
  <path d="M 231.028 214.798 L 231.028 214.948 L 233.072 214.948 L 233.072 213.879 L 231.028 213.879" fill="#B3B3B3" bx:origin="-264.399 5.282"/>
  <path fill-rule="evenodd" clip-rule="evenodd" d="M 162.025 212.809 L 164.069 212.809 L 164.069 213.878 L 162.025 213.878 L 162.025 212.809 Z M 231.028 212.809 L 233.072 212.809 L 233.072 213.878 L 231.028 213.878 L 231.028 212.809 Z" fill="#444D56" bx:origin="-6.635 6.283"/>
  <path d="M 233.072 234.814 L 233.072 232.525 L 239.739 232.525 L 239.722 234.814 L 233.072 234.814 Z M 225.76 229.175 L 214.226 223.887 L 231.028 223.887 L 231.028 229.175 L 225.76 229.175 Z M 164.069 229.175 L 164.069 223.887 L 180.869 223.887 L 169.338 229.175 L 164.069 229.175 Z M 162.025 234.814 L 155.375 234.814 L 155.356 232.525 L 162.025 232.525 L 162.025 234.814 Z M 245.63 231.419 L 245.63 234.814 L 240.635 234.814 L 240.416 221.262 L 239.832 221.262 L 239.767 229.175 L 233.072 229.175 L 233.072 223.887 L 234.659 223.887 L 234.659 221.262 L 233.072 221.293 L 233.072 214.799 L 231.028 214.799 L 231.028 221.332 L 197.548 221.962 L 164.069 221.332 L 164.069 214.799 L 162.025 214.799 L 162.025 221.293 L 160.438 221.262 L 160.438 223.887 L 162.025 223.887 L 162.025 229.175 L 155.328 229.175 L 155.263 221.262 L 154.68 221.262 L 154.46 234.814 L 149.464 234.814 L 149.464 231.419 L 148.072 231.419 L 148.072 242.72 L 149.464 242.72 L 149.464 236.49 L 154.432 236.49 L 154.325 242.72 L 155.44 242.72 L 155.389 236.49 L 162.025 236.49 L 162.025 242.72 L 164.069 242.72 L 164.069 232.525 L 169.338 232.525 L 169.338 232.357 L 185.127 224.685 L 187.092 244.717 L 190.33 244.717 L 187.283 223.887 L 207.812 223.887 L 204.764 244.717 L 208.003 244.717 L 209.97 224.685 L 225.76 232.357 L 225.76 232.525 L 231.028 232.525 L 231.028 242.72 L 233.072 242.72 L 233.072 236.49 L 239.706 236.49 L 239.657 242.72 L 240.77 242.72 L 240.663 236.49 L 245.63 236.49 L 245.63 242.72 L 247.024 242.72 L 247.024 231.419 L 245.63 231.419 Z" fill="#444D56" bx:origin="-4.623 0.158"/>
  <path fill-rule="evenodd" clip-rule="evenodd" d="M 244.734 158.512 L 245.84 158.162 L 246.258 159.49 L 245.151 159.838 L 244.734 158.512 Z" fill="#444D56" bx:origin="-363.601 36.613"/>
  <path d="M 117.818 175.882 L 107.43 175.882 C 109.406 180.012 114.152 187.938 122.452 187.957 C 124.422 187.954 126.364 187.486 128.12 186.592 C 123.565 184.027 119.727 180.385 117.818 175.882 Z" fill="#24292E" bx:origin="-20.146 3.614"/>
  <path d="M 128.12 186.592 C 132.992 184.14 136.002 178.96 137.474 175.882 L 117.818 175.882 C 119.727 180.386 123.565 184.026 128.12 186.592 Z" fill="#444D56" bx:origin="-21.734 4.075"/>
  <path d="M 101.539 177.659 C 102.516 177.398 103.414 177.295 104.329 177.188 C 105.239 177.085 106.14 177.02 107.04 176.959 C 108.844 176.842 110.638 176.777 112.433 176.73 C 116.022 176.642 119.603 176.637 123.185 176.672 C 126.766 176.707 130.346 176.791 133.925 176.924 C 135.715 176.992 137.507 177.074 139.299 177.176 C 141.096 177.288 142.876 177.396 144.712 177.636 L 144.453 179.486 C 142.748 179.264 140.958 179.152 139.189 179.045 C 137.412 178.942 135.633 178.858 133.855 178.793 C 130.293 178.662 126.73 178.578 123.166 178.541 C 119.601 178.506 116.036 178.51 112.48 178.6 C 110.704 178.646 108.928 178.712 107.162 178.826 C 106.282 178.884 105.4 178.947 104.534 179.048 C 103.678 179.143 102.794 179.258 102.045 179.458 L 101.538 177.659 L 101.539 177.659 Z M 103.802 181.317 L 119.947 181.1 L 123.983 181.047 L 126.002 181.021 L 128.02 181.033 L 136.096 181.093 L 136.086 181.627 L 128.018 181.567 L 126.002 181.555 L 123.986 181.581 L 119.951 181.635 L 103.816 181.851 L 103.802 181.317 Z" fill="#2F363D" bx:origin="-9.518 8.246"/>
  <path d="M 251.061 141.777 L 228.445 141.777 C 229.931 144.707 233.503 150.329 239.752 150.343 C 241.175 150.342 242.582 150.035 243.877 149.442 C 247.629 147.732 249.939 143.989 251.061 141.777 Z" fill="#A3A3A3" bx:origin="-23.781 9.076"/>
  <path d="M 242.909 148.882 C 240.331 147.307 237.677 144.733 236.179 141.777 L 228.445 141.777 C 229.931 144.707 233.503 150.328 239.752 150.342 C 241.176 150.344 242.583 150.037 243.877 149.442 C 243.55 149.262 243.227 149.076 242.909 148.882" fill="#444D56" bx:origin="-34.852 9.077"/>
  <path d="M 242.909 148.882 C 243.231 149.078 243.553 149.264 243.877 149.442 C 247.629 147.732 249.941 143.989 251.061 141.777 L 236.179 141.777 C 237.677 144.733 240.33 147.307 242.909 148.882 Z" fill="#2F363D" bx:origin="-36.66 10.143"/>
  <path d="M 224.463 143.958 C 228.49 143.876 232.532 143.822 236.578 143.822 C 242.36 143.822 248.144 143.932 253.893 144.222" stroke="#24292E" stroke-width=".532" stroke-miterlimit="10" bx:origin="-18.14 189.255"/>
  <path d="M 227.939 145.88 L 250.544 147.002" stroke="#24292E" stroke-width="1.333" stroke-miterlimit="10" bx:origin="-23.77 65.637"/>
  <path d="M 206.178 132.026 L 206.138 131.765 C 206.133 131.743 205.802 129.667 204.001 127.315 L 203.606 126.801 L 206.105 126.881 L 206.192 127.016 C 207.095 128.406 207.858 129.909 208.52 131.606 L 208.684 132.026 L 206.178 132.026 Z" fill="#B6BFC4" bx:origin="-101.024 17.746"/>
  <path d="M 208.853 132.026 L 208.773 131.841 C 208.048 130.201 207.196 128.656 206.456 127.359 L 206.183 126.883 L 209.48 126.988 L 209.553 127.182 C 210.101 128.647 210.596 130.132 211.037 131.634 L 211.149 132.026 L 208.853 132.026 Z" fill="#B6BFC4" bx:origin="-103.82 18.013"/>
  <path d="M 211.589 132.026 L 211.507 131.844 C 211.246 131.26 210.961 130.67 210.688 130.098 C 210.27 129.226 209.839 128.325 209.47 127.42 L 209.29 126.98 L 211.437 127.05 L 211.516 127.11 C 211.563 127.147 212.716 128.054 213.773 131.631 L 213.887 132.026 L 211.589 132.026 Z" fill="#B6BFC4" bx:origin="-112.83 18.34"/>
  <path d="M 211.787 131.695 C 211.398 130.825 210.973 129.962 210.565 129.096 C 210.361 128.489 210.147 127.885 209.925 127.286 L 211.33 127.33 C 211.33 127.33 212.439 128.174 213.479 131.695 L 211.787 131.695 Z M 209.053 131.695 C 208.369 130.146 207.562 128.657 206.722 127.183 L 209.083 127.26 L 209.186 127.514 C 209.435 128.13 209.715 128.741 210 129.344 C 210.264 130.123 210.509 130.907 210.742 131.695 L 209.053 131.695 Z M 206.442 131.719 C 206.442 131.719 206.12 129.581 204.246 127.129 L 205.933 127.183 C 206.857 128.606 207.604 130.109 208.236 131.719 L 206.442 131.719 Z M 214.067 131.523 C 213.003 127.911 211.832 126.94 211.701 126.843 L 211.545 126.723 L 211.351 126.718 L 209.774 126.667 L 208.827 126.637 L 206.743 126.571 L 205.646 126.536 L 205.66 126.56 L 204.263 126.515 L 202.972 126.473 L 203.759 127.503 C 205.515 129.801 205.831 131.791 205.835 131.81 L 205.912 132.332 L 209.132 132.332 L 209.123 132.309 L 214.301 132.309 L 214.067 131.523 Z" fill="#6A737D" bx:origin="-45.226 15.882"/>
  <path d="M 214.175 136.13 L 211.615 136.13 L 211.307 135.21 L 213.932 135.21 L 214.175 136.13 Z" fill="#959DA5" bx:origin="-181.555 91.648"/>
  <path fill-rule="evenodd" clip-rule="evenodd" d="M 209.036 140.509 L 211.309 140.509 L 211.309 141.281 L 209.036 141.281 L 209.036 140.509 Z" fill="#959DA5" bx:origin="-228.084 102.353"/>
  <path fill-rule="evenodd" clip-rule="evenodd" d="M 212.023 140.49 L 214.996 140.49 L 214.996 141.262 L 212.023 141.262 L 212.023 140.49 Z M 217.177 142.812 L 220.15 142.812 L 220.15 143.582 L 217.177 143.582 L 217.177 142.812 Z M 192.138 155.253 L 192.938 155.253 L 192.938 156.497 L 192.138 156.497 L 192.138 155.253 Z" fill="#B6BFC4" bx:origin="-17.904 4.938"/>
  <path fill-rule="evenodd" clip-rule="evenodd" d="M 189.74 155.253 L 192.14 155.253 L 192.14 156.497 L 189.74 156.497 L 189.74 155.253 Z" fill="#444D56" bx:origin="-207.968 51.666"/>
  <path fill-rule="evenodd" clip-rule="evenodd" d="M 188.139 156.495 L 183.274 156.515 L 183.269 155.275 L 188.134 155.253 L 188.139 156.495 Z" fill="#586069" bx:origin="-101.162 50.929"/>
  <path fill-rule="evenodd" clip-rule="evenodd" d="M 208.754 180.569 L 212.294 180.569 L 212.294 181.813 L 208.754 181.813 L 208.754 180.569 Z" fill="#B6BFC4" bx:origin="-146.366 31.316"/>
  <path fill-rule="evenodd" clip-rule="evenodd" d="M 214.061 180.57 L 219.444 180.549 L 219.448 181.793 L 214.065 181.813 L 214.061 180.57 Z" fill="#E1E4E8" bx:origin="-97.169 30.836"/>
  <path d="M 306.276 112.302 C 306.299 111.924 306.286 111.545 306.236 111.17 C 305.922 108.71 304.104 106.96 301.784 106.76 C 303.348 107.642 304.344 109.353 304.316 111.375 C 304.312 111.756 304.27 112.137 304.192 112.511 C 303.635 115.284 301.288 117.475 298.59 117.747 C 298.238 117.782 297.883 117.782 297.531 117.747 C 298.379 118.255 299.36 118.495 300.347 118.438 C 300.714 118.418 301.079 118.362 301.437 118.273 C 304.08 117.593 306.106 115.093 306.276 112.302" fill="#B6BFC4" bx:origin="-69.315 9.649"/>
  <path d="M 187.913 234.807 L 187.764 234.17 L 208.752 225.063 L 208.903 225.702 L 187.913 234.807 Z M 187.006 232.788 L 186.73 231.498 L 209.334 222.608 L 209.609 223.896 L 187.006 232.788 Z" fill="#444D56" bx:origin="-21.684 -0.253"/>
  <path d="M 223.741 293.164 L 223.836 298.966 L 243.201 305.558 L 259.67 298.966 L 261.597 282.129 L 243.64 287.146 L 223.741 293.164 Z M 261.596 282.128 L 242.056 276.582 L 237.4 278.18 C 242.91 281.265 248.954 283.017 254.29 284.17 L 261.596 282.128 Z" fill="#2F363D" bx:origin="-14.083 -1.969"/>
  <path d="M 232.002 280.029 L 223.574 282.921 L 223.742 293.164 L 243.64 287.146 L 245.724 286.565 C 238.616 284.603 233.749 283.109 232.002 280.029" fill="#2F363D" bx:origin="-24.061 -4.606"/>
  <path d="M 237.399 278.179 L 232.003 280.03 C 233.751 283.11 238.615 284.603 245.723 286.565 L 254.291 284.169 C 248.955 283.016 242.911 281.264 237.399 278.179" fill="#24292E" bx:origin="-24.291 -6.994"/>
  <path d="M 142.421 294.742 L 144.961 305.572 L 163.035 308.28 L 177.115 298.406 L 181.313 278.052 L 162.133 286.928 L 142.421 294.742 Z" fill="#2F363D" bx:origin="-11.617 -1.936"/>
  <path d="M 165.932 276.657 L 161.004 276.311 L 151.582 279.469 C 151.785 280.243 152.102 280.885 152.702 281.247 C 155.81 283.223 158.981 285.008 161.918 287.015 L 162.133 286.931 L 176.413 280.321 C 174.474 279.699 172.501 279.188 170.505 278.792 C 168.858 278.379 167.348 277.621 165.932 276.657" fill="#24292E" bx:origin="-18.564 -5.305"/>
  <path d="M 165.932 276.657 C 167.349 277.621 168.858 278.379 170.506 278.792 C 172.575 279.205 174.538 279.719 176.413 280.321 L 181.902 277.779 L 165.932 276.657 Z M 151.582 279.469 L 139.766 283.429 L 142.422 294.743 L 161.919 287.015 C 158.982 285.008 155.81 283.223 152.7 281.247 C 152.103 280.885 151.783 280.243 151.582 279.469 Z" fill="#2F363D" bx:origin="-10.66 -3.159"/>
  <path d="M 139.765 283.429 L 143.447 299.114 L 162.159 302.929 L 162.133 286.929 L 139.765 283.429 Z M 223.614 285.528 L 223.742 293.163 L 242.584 298.408 L 243.641 287.145 L 223.614 285.528 Z" fill="#444D56" bx:origin="-4.324 -3.277"/>
  <path d="M 172.786 272.218 L 172.579 277.671 L 173.617 277.713 L 174.368 277.338 L 174.2 272.26 L 172.786 272.218 Z" fill="#2F363D" bx:origin="-269.406 -9.589"/>
  <path d="M 154.473 272.904 L 153.068 282.492 C 153.068 282.492 159.968 284.482 162.425 283.43 C 164.882 282.378 166.986 280.038 166.986 280.038 C 166.986 280.038 165.701 273.838 164.413 272.319 C 163.127 270.8 154.473 272.904 154.473 272.904" fill="#1B1F23" bx:origin="-33.227 -4.365"/>
  <path d="M 151.913 274.996 C 152.935 275.843 154.258 276.289 155.593 276.503 C 156.935 276.718 158.316 276.707 159.679 276.569 C 162.385 276.261 165.129 275.519 167.411 274.053 L 167.71 274.497 C 165.299 276.037 162.521 276.779 159.732 277.099 C 158.332 277.243 156.911 277.255 155.509 277.031 C 154.113 276.805 152.702 276.34 151.57 275.407 L 151.913 274.996 Z M 151.265 278.193 C 152.464 279.115 153.992 279.556 155.518 279.738 C 157.054 279.915 158.62 279.859 160.162 279.642 C 163.223 279.192 166.31 278.258 168.844 276.502 L 169.159 276.933 C 166.494 278.774 163.37 279.703 160.234 280.174 C 158.657 280.391 157.049 280.452 155.453 280.27 C 153.871 280.078 152.254 279.624 150.936 278.616 L 151.265 278.193 Z" fill="#2F363D" bx:origin="-25.261 -8.622"/>
  <path d="M 239.84 260.31 L 243.723 282.337 C 243.723 282.337 239.234 284.327 237.638 283.275 C 236.039 282.222 234.672 279.882 234.672 279.882 C 234.672 279.882 232.539 261.243 233.374 259.724 C 234.212 258.205 239.84 260.31 239.84 260.31" fill="#1B1F23" bx:origin="-51.463 -1.624"/>
  <path d="M 232.38 274.485 C 234.176 276.378 236.687 277.544 239.296 277.645 C 241.907 277.773 244.513 277.001 246.807 275.741 L 247.063 276.21 C 244.702 277.507 242.005 278.312 239.27 278.177 C 236.535 278.074 233.873 276.837 231.997 274.856 L 232.38 274.485 Z M 232.364 271.409 C 233.288 272.2 234.322 272.858 235.458 273.266 C 236.592 273.68 237.81 273.84 239.035 273.896 C 240.283 273.946 241.49 273.99 242.689 273.731 C 243.902 273.518 245.099 273.204 246.357 273.012 L 246.429 273.542 C 245.228 273.722 244.016 274.041 242.782 274.258 C 241.541 274.524 240.241 274.48 239.012 274.433 C 237.758 274.375 236.482 274.207 235.276 273.77 C 234.07 273.334 232.975 272.636 232.016 271.815 L 232.364 271.409 Z M 231.365 267.529 C 233.335 268.474 235.465 269.183 237.637 269.134 C 239.833 269.127 241.814 268.126 243.777 267.072 L 244.015 267.55 C 243.037 268.042 242.055 268.604 240.988 269.001 C 239.921 269.413 238.792 269.64 237.649 269.671 C 235.351 269.718 233.146 268.976 231.127 268.01 L 231.365 267.529 Z M 230.049 263.744 C 234.911 264.799 239.975 264.477 244.856 263.541 L 244.956 264.066 C 240.033 265.011 234.893 265.345 229.937 264.267 L 230.049 263.744 Z M 176.124 254.791 C 175.331 254.97 174.656 255.5 174.356 256.179 C 174.334 256.228 174.316 256.28 174.297 256.331 L 173.506 256.518 L 173.632 257.61 L 174.017 258.354 L 174.692 258.284 L 174.754 258.405 C 174.983 258.848 175.417 259.18 175.972 259.313 C 176.345 259.402 176.734 259.402 177.106 259.313 C 177.89 259.136 178.558 258.618 178.864 257.95 L 179.461 258.102 L 180.21 256.77 L 179.825 256.021 C 179.825 256.021 179.122 256.011 178.637 256.009 L 178.476 255.699 C 178.248 255.255 177.816 254.926 177.26 254.791 C 176.886 254.704 176.497 254.704 176.124 254.791 Z M 177.478 256.578 C 177.498 256.59 177.517 256.599 177.536 256.611 C 177.521 256.813 177.444 257.006 177.316 257.164 C 177.195 257.316 177.036 257.442 176.852 257.528 C 176.488 257.698 176.07 257.698 175.756 257.528 C 175.734 257.516 175.714 257.504 175.695 257.49 C 175.711 257.289 175.788 257.098 175.916 256.942 C 176.036 256.788 176.196 256.664 176.381 256.578 C 176.745 256.406 177.162 256.406 177.478 256.578" fill="#444D56" bx:origin="-6.565 -1.5"/>
  <path d="M 177.316 257.164 C 177.197 257.315 177.036 257.441 176.852 257.527 C 176.488 257.698 176.07 257.698 175.755 257.527 C 175.601 257.444 175.475 257.318 175.393 257.164 C 175.242 256.864 175.295 256.496 175.531 256.195 C 175.653 256.046 175.811 255.92 175.995 255.831 C 176.359 255.658 176.777 255.658 177.092 255.831 C 177.246 255.913 177.372 256.04 177.454 256.195 C 177.605 256.496 177.554 256.864 177.316 257.164 Z M 179.827 256.022 C 179.827 256.022 179.083 256.013 178.597 256.01 C 178.436 255.414 177.939 254.956 177.26 254.79 C 176.886 254.704 176.497 254.704 176.124 254.79 C 175.331 254.972 174.656 255.5 174.355 256.178 C 174.334 256.229 174.315 256.281 174.297 256.332 L 173.506 256.52 L 173.632 257.609 L 174.313 257.536 C 174.521 258.04 174.983 258.421 175.589 258.568 C 175.962 258.657 176.351 258.657 176.723 258.568 C 177.507 258.39 178.175 257.872 178.481 257.208 L 179.075 257.357 L 179.827 256.022 Z" fill="#2F363D" bx:origin="-76.395 -9.004"/>
  <path d="M 172.195 269.643 C 171.689 270.01 171.371 270.6 171.367 271.188 C 171.367 271.235 171.369 271.277 171.371 271.319 L 170.867 271.69 L 171.292 272.46 L 171.791 272.901 L 172.249 272.649 L 172.33 272.719 C 172.644 272.988 173.062 273.104 173.471 273.036 C 173.754 272.996 174.031 272.882 174.276 272.705 C 174.776 272.341 175.091 271.762 175.105 271.181 L 175.574 271.118 L 175.695 269.909 L 175.196 269.471 C 175.196 269.471 174.694 269.669 174.349 269.809 L 174.139 269.627 C 173.824 269.358 173.407 269.242 173 269.31 C 172.718 269.352 172.44 269.466 172.195 269.643 Z M 173.7 270.567 L 173.754 270.577 C 173.803 270.731 173.807 270.896 173.765 271.053 C 173.725 271.202 173.651 271.34 173.548 271.456 C 173.343 271.689 173.047 271.813 172.771 271.778 C 172.753 271.776 172.734 271.771 172.718 271.769 C 172.667 271.615 172.663 271.45 172.706 271.295 C 172.745 271.144 172.82 271.005 172.923 270.889 C 173.128 270.658 173.425 270.535 173.7 270.567" fill="#444D56" bx:origin="-99.473 -13.221"/>
  <path d="M 173.766 271.051 C 173.724 271.201 173.65 271.339 173.549 271.457 C 173.342 271.688 173.048 271.812 172.77 271.779 C 172.634 271.761 172.507 271.703 172.404 271.614 C 172.205 271.436 172.128 271.147 172.205 270.858 C 172.243 270.707 172.317 270.567 172.422 270.452 C 172.628 270.218 172.924 270.095 173.199 270.127 C 173.339 270.146 173.468 270.204 173.568 270.293 C 173.766 270.47 173.84 270.76 173.766 271.051 Z M 175.194 269.469 C 175.194 269.469 174.664 269.679 174.319 269.822 C 174.022 269.427 173.53 269.234 172.998 269.311 C 172.718 269.35 172.44 269.465 172.196 269.642 C 171.687 270.011 171.372 270.601 171.368 271.189 C 171.365 271.231 171.367 271.274 171.372 271.317 L 170.868 271.688 L 171.29 272.461 L 171.752 272.206 C 172.054 272.519 172.496 272.664 172.97 272.596 C 173.252 272.556 173.53 272.442 173.776 272.265 C 174.277 271.901 174.59 271.322 174.604 270.741 L 175.072 270.678 L 175.194 269.469 Z" fill="#2F363D" bx:origin="-111.017 -14.999"/>
  <path d="M 177.475 258.28 L 177.117 258.333 L 178.017 278.946 L 178.685 278.533 L 177.475 258.28 Z" fill="#444D56" bx:origin="-310.273 -1.875"/>
  <path d="M 175.857 258.531 L 176.1 278.865 L 178.016 278.947 L 177.115 258.335 L 175.857 258.531 Z M 145.674 265.41 C 145.674 265.41 147.326 260.818 152.777 260.317 C 158.23 259.815 164.04 259.096 167.412 259.455 C 170.786 259.815 171.574 264.979 170.282 268.854 C 168.992 272.729 168.345 274.521 157.297 275.023 C 146.248 275.525 143.306 274.953 143.451 271.507 C 143.526 269.711 145.674 265.41 145.674 265.41 Z" fill="#2F363D" bx:origin="-13.099 -1.883"/>
  <path d="M 147.626 265.316 C 147.626 265.316 148.686 262.227 152.676 261.69 C 156.666 261.156 160.912 260.465 163.404 260.577 C 165.894 260.687 166.648 264.065 165.829 266.667 C 165.01 269.271 164.594 270.48 156.491 271.224 C 148.387 271.968 146.208 271.7 146.196 269.423 C 146.192 268.235 147.626 265.316 147.626 265.316" fill="#032F62" bx:origin="-22.836 -3.721"/>
  <path d="M 156.418 270.427 C 161.729 269.937 163.406 269.261 164.16 268.411 C 164.571 267.949 164.767 267.375 165.065 266.428 C 165.187 266.036 165.27 265.632 165.313 265.224 C 165.499 263.401 164.904 261.936 163.987 261.521 C 163.792 261.432 163.582 261.382 163.369 261.376 C 160.931 261.269 156.535 261.983 152.783 262.487 C 149.252 262.961 148.384 265.576 148.384 265.576 L 148.37 265.621 C 148.004 266.365 146.993 268.609 146.998 269.419 C 147.003 270.6 147.572 271.239 156.418 270.427" fill="#005CC5" bx:origin="-24.872 -4.439"/>
  <path d="M 147.823 269.65 C 148.002 269.883 149.248 270.28 156.344 269.627 C 161.72 269.135 163.05 268.451 163.561 267.879 L 163.596 267.835 C 163.853 267.527 164.007 267.123 164.301 266.187 C 164.375 265.945 164.501 265.263 164.513 265.14 C 164.69 263.423 164.084 262.443 163.657 262.249 C 163.554 262.204 163.444 262.18 163.332 262.179 C 160.957 262.071 156.458 262.799 152.888 263.28 C 149.813 263.693 149.146 265.828 149.146 265.828 C 149.106 265.952 149.176 265.791 148.705 266.801 C 148.24 267.851 147.797 269.032 147.799 269.415 C 147.799 269.606 147.823 269.65 147.823 269.65" fill="#34D058" bx:origin="-27.302 -5.456"/>
  <path d="M 153.714 269.459 L 149.78 269.804 L 150.214 266.914 L 154.15 266.568 L 153.714 269.459 Z" fill="#0366D6" bx:origin="-105.073 -14.537"/>
  <path d="M 157.65 269.112 L 155.683 269.285 L 156.117 266.394 L 158.086 266.221 L 157.65 269.112 Z" fill="#34D058" bx:origin="-193.537 -15.24"/>
  <path d="M 156.118 266.394 L 156.664 262.763 L 158.633 262.59 L 158.085 266.221 L 156.118 266.394 Z" fill="#E1E4E8" bx:origin="-185.091 -11.321"/>
  <path d="M 161.586 268.764 L 159.619 268.939 L 159.861 267.331 L 161.829 267.158 L 161.586 268.764 Z" fill="#FFDF5D" bx:origin="-212.224 -26.745"/>
  <path d="M 161.828 267.157 L 159.861 267.33 L 160.601 262.418 L 162.568 262.245 L 161.828 267.157 Z" fill="#FB8532" bx:origin="-173.345 -8.401"/>
  <path d="M 251.93 249.771 C 251.93 249.771 250.334 245.513 245.068 246.117 C 239.8 246.717 234.186 247.176 230.926 248.217 C 227.671 249.258 226.906 254.585 228.156 258.197 C 229.402 261.809 230.025 263.472 240.702 261.739 C 251.378 260.003 254.217 258.834 254.08 255.418 C 254.007 253.635 251.93 249.771 251.93 249.771" fill="#2F363D" bx:origin="-20.266 -1.621"/>
  <path d="M 231.698 252.567 C 231.698 252.567 230.55 249.184 234.482 248.521 C 238.416 247.856 242.511 247.019 245.295 247.089 C 248.081 247.161 251.405 250.819 252.451 253.669 C 253.496 256.517 253.942 257.841 245.703 258.813 C 237.464 259.789 234.897 259.539 233.196 257.063 C 232.307 255.771 231.698 252.567 231.698 252.567 Z" fill="#032F62" bx:origin="-25.195 -2.248"/>
  <path d="M 234.856 257.66 C 236.345 258.719 238.942 258.805 245.608 258.017 C 250.7 257.417 251.913 256.701 252.148 256.148 C 252.31 255.772 252.17 255.226 251.698 253.943 C 251.367 253.04 250.765 252.011 249.998 251.052 C 248.536 249.229 246.705 247.925 245.274 247.89 C 242.598 247.822 238.608 248.637 234.616 249.311 C 233.447 249.509 232.915 249.953 232.656 250.345 C 232.327 250.842 232.308 251.448 232.372 251.901 C 232.408 252.174 232.458 252.309 232.458 252.309 C 232.476 252.368 232.472 252.347 232.483 252.417 C 232.682 253.46 233.246 255.721 233.856 256.61 C 234.161 257.055 234.485 257.396 234.856 257.66" fill="#005CC5" bx:origin="-27.264 -2.662"/>
  <path d="M 235.321 257.008 C 236.505 257.848 238.733 258.025 245.516 257.223 C 250.287 256.658 251.267 256.009 251.412 255.827 C 251.426 255.72 251.377 255.393 250.945 254.22 C 250.649 253.415 250.099 252.461 249.37 251.553 C 247.945 249.768 246.311 248.718 245.257 248.692 C 242.637 248.627 238.525 249.465 234.75 250.101 C 233.749 250.269 233.434 250.619 233.327 250.787 C 233.149 251.049 233.117 251.425 233.165 251.795 C 233.196 252.01 233.212 252.041 233.212 252.041 C 233.291 252.262 233.28 252.407 233.506 253.321 C 233.784 254.439 234.171 255.655 234.517 256.157 C 234.783 256.541 235.041 256.807 235.321 257.008 Z M 251.419 255.818 L 251.419 255.816 C 251.421 255.809 251.424 255.804 251.419 255.818 Z" fill="#34D058" bx:origin="-29.684 -3.222"/>
  <path d="M 230.058 275.108 C 229.136 274.494 228.522 276.643 227.909 276.029 C 227.817 275.906 227.729 275.781 227.645 275.654 C 227.594 278.801 227.526 282.024 227.526 282.024 C 227.556 282.492 228.322 282.828 229.236 282.77 C 230.154 282.714 230.872 282.285 230.842 281.816 C 230.837 281.732 230.711 278.547 230.594 275.644 C 230.434 275.446 230.255 275.267 230.058 275.108" fill="#24292E" bx:origin="-161.873 -7.13"/>
  <path d="M 237.283 266.784 C 236.788 265.631 227.572 267.194 227.686 269.896 C 227.714 270.568 227.686 273.086 227.644 275.655 C 227.728 275.779 227.814 275.905 227.908 276.028 C 228.521 276.644 229.137 274.496 230.057 275.107 C 230.255 275.268 230.432 275.448 230.596 275.646 L 230.411 270.94 C 232.138 268.592 238.685 270.055 237.283 266.784" fill="#2F363D" bx:origin="-54.608 -4.813"/>
  <path d="M 87.515 244.672 C 88.829 244.653 90.138 244.602 91.442 244.546 M 88.024 240.821 C 88.916 240.765 89.844 240.706 90.792 240.669 L 88.024 240.821 Z" stroke="#0366D6" stroke-width="1.092" stroke-miterlimit="10" stroke-linecap="square" bx:origin="-101.07 -5.282"/>
  <path d="M 303.111 250.653 C 305.883 250.653 309.282 250.063 311.914 251.451 M 300.618 254.88 C 303.91 254.883 308.236 254.301 311.015 256.726" stroke="#0366D6" stroke-width="1.092" stroke-miterlimit="10" bx:origin="-54.002 -5.002"/>
  <path d="M 138.701 249.7 C 141.926 250.044 145.953 249.75 148.839 251.752 M 137.72 252.077 C 140.866 253.05 145.168 253.774 147.107 256.91" stroke="#0366D6" stroke-width="1.092" stroke-miterlimit="10" stroke-linecap="square" bx:origin="-40.211 -4.185"/>
  <path d="M 116.633 261.021 C 110.748 265.834 107.626 274.335 107.626 279.876 C 107.626 290.556 109.267 298.44 109.558 306.96" stroke="#0366D6" stroke-width="1.092" stroke-miterlimit="10" bx:origin="-46.299 -0.903"/>
  <path d="M 115.323 264.514 C 113.174 270.28 111.517 272.254 111.517 278.647 C 111.517 287.39 114.555 300.249 116.821 308.488" stroke="#0366D6" stroke-width="1.092" stroke-miterlimit="10" bx:origin="-79.356 -1.023"/>
  <path d="M 129.668 312.204 C 131.114 312.752 132.582 313.242 134.094 313.555 C 135.603 313.867 137.139 314.054 138.674 314.049 C 140.209 314.033 141.745 313.886 143.227 313.508 C 144.69 313.121 146.155 312.563 147.331 311.691 C 147.63 311.481 147.907 311.229 148.082 310.993 C 148.295 310.659 148.264 310.818 148.169 310.65 C 147.802 310.333 146.962 310.157 146.281 310.157 L 146.283 309.065 C 146.727 309.073 147.161 309.119 147.597 309.227 C 148.029 309.339 148.472 309.467 148.915 309.857 C 149.127 310.043 149.356 310.412 149.321 310.797 C 149.291 310.971 149.245 311.142 149.183 311.308 L 148.967 311.63 C 148.69 311.99 148.358 312.305 147.984 312.563 C 146.615 313.571 145.065 314.143 143.495 314.565 C 141.915 314.967 140.291 315.123 138.677 315.139 C 137.057 315.144 135.447 314.948 133.87 314.621 C 132.288 314.295 130.759 313.786 129.259 313.214 L 129.667 312.204 L 129.668 312.204 Z" fill="#0366D6" bx:origin="-21.861 -14.741"/>
  <path d="M 112.257 311.978 C 111.195 312.155 109.315 312.471 106.881 312.557 C 104.219 312.653 101.827 311.843 99.345 310.144 C 99.345 310.144 98.292 308.809 101.344 308.865 M 283.225 266.375 C 280.147 274.388 270.677 300.006 270.677 314.104 C 270.677 316.103 270.854 317.721 271.227 319.079 C 274.454 321.529 279.315 322.381 284.03 322.381 C 287.833 322.381 291.539 321.825 294.211 321.109 C 294.878 320.931 296.103 319.921 296.103 319.104 C 296.103 318.306 294.887 318.057 294.115 318.057 C 291.28 318.057 287.621 321.937 284.966 322.171 M 270.574 313.412 C 267.805 314.66 261.803 315.434 259.101 315.434 C 255.541 315.434 252.059 314.322 248.72 312.018 C 248.925 310.532 251.809 310.973 251.809 310.973" stroke="#0366D6" stroke-width="1.092" stroke-miterlimit="10" bx:origin="-2.075 -0.837"/>
  <path d="M 119.554 272.79 C 120.66 279.867 122.667 286.823 124.636 293.75 C 126.629 300.685 128.794 307.571 130.568 314.603 L 130.633 314.865 L 130.46 315.077 L 128.451 317.545 L 128.435 317.562 L 128.421 317.578 C 127.096 318.945 125.67 320.257 124.004 321.281 C 122.352 322.313 120.418 322.985 118.446 323.094 C 114.521 323.251 110.764 322.123 107.278 320.616 L 107.276 320.614 C 106.471 320.334 105.778 319.354 105.895 318.437 C 105.953 317.536 106.455 316.773 107.132 316.269 C 107.81 315.756 108.739 315.574 109.546 315.747 C 110.366 315.907 111.044 316.321 111.64 316.764 C 112.827 317.662 113.746 318.738 114.731 319.709 C 115.697 320.679 116.719 321.605 117.884 322.058 L 117.506 323.083 C 116.04 322.504 114.96 321.473 113.959 320.479 C 112.956 319.485 112.034 318.427 110.986 317.637 C 109.971 316.827 108.686 316.439 107.773 317.151 C 106.835 317.805 106.642 319.265 107.717 319.617 C 111.094 321.085 114.752 322.154 118.38 322.005 C 120.17 321.904 121.899 321.307 123.434 320.353 C 124.977 319.403 126.349 318.152 127.634 316.822 L 127.606 316.857 L 129.616 314.389 L 129.508 314.862 C 127.751 307.89 125.584 300.995 123.588 294.053 C 121.614 287.107 119.601 280.147 118.476 272.946 L 119.554 272.79 Z" fill="#0366D6" bx:origin="-16.778 -1.059"/>
  <path d="M 286.208 265.175 C 287.402 273.015 286.593 281.294 285.543 289.29 C 284.74 295.401 283.177 301.843 283.177 308.138 C 283.177 308.692 283.191 309.249 283.217 309.802 M 276.777 273.492 C 271.879 283.548 268.229 293.745 264.916 304.413 L 276.777 273.492 Z" stroke="#0366D6" stroke-width="1.092" stroke-miterlimit="10" bx:origin="-26.242 -1.023"/>
  <path d="M 293.204 318.333 C 292.91 311.359 286.232 309.555 280.2 309.555 C 279.151 309.556 278.103 309.636 277.067 309.796 M 283.993 262.787 C 275.845 262.787 271.627 270.96 268.327 270.96 C 260.877 270.96 260.317 258.144 245.269 258.144 C 238.708 258.144 233.512 261.118 230.607 267.059 C 231.923 266.623 235.894 266.182 236.837 266.182 C 254.946 266.182 259.204 280.695 266.372 280.695 C 271.107 280.695 281.322 268.73 284.012 265.456 M 287.915 262.618 C 289.305 266.153 291.473 267.737 291.072 280.592 C 290.739 291.241 290.011 303.715 290.775 308.928 M 291.786 313.858 C 294.533 312.857 296.85 310.794 298.17 307.859 M 290.62 302.392 C 293.924 302.803 295.968 304.851 295.431 308.023 M 294.972 305.951 C 297.83 305.147 299.891 305.277 297.448 309.269 M 265.359 304.714 C 255.302 303.267 252.029 305.808 251.175 311.966 M 107.668 282.823 C 102.514 285.791 92.714 289.534 94.046 281.003 C 95.346 272.682 108.088 264.984 115.926 260.99" stroke="#0366D6" stroke-width="1.092" stroke-miterlimit="10" bx:origin="-1.971 -0.642"/>
  <path d="M 108.349 275.258 C 105.597 276.793 101.091 277.843 105.017 272.871 C 106.963 270.402 109.242 268.216 111.79 266.375" stroke="#0366D6" stroke-width="1.092" stroke-miterlimit="10" bx:origin="-49.676 -4.613"/>
  <path d="M 106.421 277.071 C 106.671 277.019 106.931 277.073 107.14 277.221 C 107.35 277.379 107.44 277.564 107.501 277.711 C 107.616 278.012 107.632 278.259 107.644 278.499 C 107.648 278.973 107.592 279.461 107.424 279.911 C 107.114 280.826 106.463 281.551 105.74 282.093 C 104.244 283.103 102.459 283.661 100.548 283.139 C 100.07 282.987 99.519 282.545 99.365 281.953 C 99.211 281.379 99.302 280.871 99.484 280.371 C 99.936 279.401 100.774 278.869 101.551 278.483 C 103.145 277.727 104.797 277.405 106.421 277.071 Z M 106.631 278.143 C 105.035 278.465 103.42 278.799 102.032 279.463 C 101.341 279.79 100.734 280.247 100.487 280.801 C 100.387 281.067 100.342 281.414 100.41 281.638 C 100.473 281.857 100.627 282.005 100.924 282.114 C 102.207 282.492 103.924 282.061 105.096 281.211 C 105.684 280.773 106.178 280.207 106.395 279.549 C 106.519 279.227 106.554 278.883 106.554 278.537 C 106.552 278.393 106.53 278.25 106.488 278.113 C 106.39 278.007 106.596 278.187 106.631 278.143 Z M 103.257 270.06 C 103.616 269.834 104.158 269.643 104.685 269.724 C 104.816 269.752 105.084 269.78 105.308 270.091 C 105.499 270.427 105.42 270.618 105.38 270.805 C 105.28 271.094 105.191 271.243 105.093 271.425 C 104.704 272.121 104.276 272.744 103.833 273.369 C 102.921 274.601 102.032 275.812 100.73 276.843 C 100.384 277.023 100.037 277.513 99.101 277.186 C 98.602 276.829 98.684 276.346 98.69 276.181 C 98.7 275.943 98.751 275.728 98.802 275.516 C 99.043 274.685 99.456 274.001 99.902 273.353 C 100.821 272.074 101.876 270.945 103.257 270.06 Z M 103.814 270.998 C 102.662 271.729 101.614 272.823 100.795 273.978 C 100.392 274.559 100.032 275.184 99.855 275.803 C 99.82 275.952 99.782 276.106 99.78 276.241 C 99.74 276.43 99.841 276.398 99.675 276.258 C 99.465 276.209 99.862 276.195 100.09 275.959 C 101.148 275.128 102.09 273.908 102.946 272.734 C 103.374 272.139 103.791 271.519 104.134 270.903 C 104.208 270.777 104.273 270.646 104.328 270.511 C 104.342 270.522 104.318 270.511 104.393 270.686 C 104.508 270.835 104.575 270.805 104.526 270.805 C 104.304 270.777 104.09 270.835 103.814 270.998 Z M 122.641 309.46 C 121.353 309.005 120.002 308.718 118.668 308.777 C 117.333 308.809 116.031 309.201 114.937 309.936 C 112.722 311.425 111.553 314.118 111.143 316.803 L 110.065 316.64 C 110.506 313.782 111.752 310.774 114.33 309.029 C 115.599 308.172 117.123 307.722 118.63 307.687 C 120.142 307.622 121.624 307.944 123.008 308.434 L 122.641 309.46 Z M 98.841 216.394 C 101.032 212.418 103.813 208.666 107.516 205.889 C 108.452 205.194 109.448 204.582 110.491 204.062 C 111.228 203.724 112.169 203.971 112.65 204.592 C 113.02 205.04 113.368 205.506 113.692 205.985 C 114.992 207.903 115.935 210.033 116.59 212.231 C 116.662 212.514 116.497 212.803 116.217 212.886 C 115.937 212.97 115.641 212.819 115.545 212.544 L 115.545 212.541 C 114.918 210.434 114.014 208.404 112.792 206.596 C 112.486 206.145 112.159 205.709 111.812 205.289 C 111.602 205.022 111.24 204.929 110.928 205.063 C 109.96 205.551 109.036 206.12 108.165 206.766 C 104.646 209.401 101.93 213.041 99.798 216.916 C 99.729 217.043 99.613 217.138 99.474 217.179 C 99.335 217.22 99.186 217.205 99.06 217.136 C 98.933 217.067 98.838 216.951 98.796 216.813 C 98.753 216.674 98.769 216.525 98.838 216.398 L 98.841 216.394 Z" fill="#0366D6" bx:origin="-16.775 0.138"/>
  <path d="M 154.88 260.686 C 154.581 259.743 154.04 259.001 153.178 258.656 C 152.338 258.304 151.268 258.238 150.294 258.313 C 148.318 258.497 146.526 259.64 145.164 261.16 C 143.78 262.676 142.732 264.515 141.897 266.424 C 141.068 268.342 140.434 270.364 140.074 272.413 C 140.047 272.637 139.882 272.821 139.662 272.872 C 139.275 272.963 138.923 272.625 138.999 272.236 L 139.001 272.231 C 139.379 270.07 140.035 267.992 140.896 265.987 C 141.768 263.999 142.86 262.07 144.361 260.424 C 145.826 258.784 147.87 257.44 150.192 257.228 C 151.338 257.148 152.464 257.193 153.61 257.652 C 154.779 258.103 155.6 259.26 155.916 260.345 L 155.922 260.368 C 156.007 260.656 155.841 260.959 155.552 261.043 C 155.268 261.126 154.969 260.967 154.88 260.686" fill="#0366D6" bx:origin="-26.444 -2.401"/>
  <path d="M 147.518 273.485 C 142.875 272.26 138.399 274.505 130.618 270.232 C 122.731 265.307 124.42 264.74 118.946 261.242" stroke="#0366D6" stroke-width="1.092" stroke-miterlimit="10" stroke-linecap="round" bx:origin="-14.991 -3.407"/>
  <path d="M 124.172 272.382 C 126.582 278.136 128.304 284.105 130.272 289.957 C 132.232 295.8 134.458 301.586 137.776 306.743 C 137.936 306.996 137.863 307.332 137.612 307.496 C 137.359 307.66 137.02 307.586 136.858 307.333 C 133.459 302.05 131.207 296.173 129.236 290.304 C 127.262 284.424 125.544 278.477 123.166 272.804 C 123.081 272.6 123.126 272.366 123.281 272.209 C 123.554 271.931 124.021 272.021 124.172 272.38 L 124.172 272.382 Z" fill="#0366D6" bx:origin="-29.348 -1.478"/>
  <path d="M 154.703 259.146 C 158.621 256.432 157.748 261.742 156.117 265.196 C 156.117 265.196 151.005 282.465 144.539 282.922 C 131.981 283.809 126.636 276.627 119.094 266.736 M 135.842 304.584 C 139.934 304.757 145.814 306.229 146.206 309.071 C 146.654 312.321 146.542 310.863 146.542 310.863" stroke="#0366D6" stroke-width="1.092" stroke-miterlimit="10" stroke-linecap="square" bx:origin="-11.158 -0.736"/>
  <path d="M 109.391 304.265 C 107.431 304.314 105.349 304.249 103.716 304.981 C 102.906 305.341 102.367 306.003 102.127 306.862 C 101.875 307.714 101.868 308.68 101.926 309.637 L 100.839 309.721 C 100.778 308.689 100.771 307.618 101.084 306.545 C 101.364 305.467 102.199 304.443 103.242 303.999 C 104.262 303.519 105.321 303.376 106.341 303.283 C 107.368 303.201 108.378 303.185 109.384 303.175 L 109.391 304.265 Z" fill="#0366D6" bx:origin="-47.779 -12.779"/>
  <path d="M 226.168 296.055 L 227.66 290.569 L 238.712 292.62 L 239.977 298.918 L 226.168 296.055 Z" fill="#000" bx:origin="-38.783 -8.509"/>
  <path d="M 224.275 291.199 C 226.188 291.151 228.449 294.315 228.449 294.315 C 228.449 294.315 229.782 295.717 230.801 294.945 C 231.816 294.175 233.515 292.119 234.551 293.309 C 235.592 294.501 235.097 296.907 236.537 296.235 C 237.979 295.563 239.316 294.515 240.342 294.788" stroke="#376EE3" stroke-width=".717" stroke-miterlimit="10" bx:origin="-33.215 -13.909"/>
  <path d="M 171.319 296.586 C 171.879 296.621 172.464 295.713 172.637 294.523 C 172.814 293.305 172.492 292.251 171.918 292.164 L 171.881 292.162 L 169.587 292.017 C 169.027 291.98 168.444 292.887 168.269 294.08 C 168.094 295.298 168.413 296.353 168.985 296.437 L 169.027 296.441 L 171.319 296.586 Z" fill="#A7322C" bx:origin="-106.98 -15.858"/>
  <path d="M 172.637 294.524 C 172.46 295.742 171.853 296.663 171.279 296.582 C 170.707 296.5 170.385 295.445 170.563 294.225 C 170.74 293.007 171.347 292.083 171.918 292.164 C 172.492 292.248 172.814 293.306 172.637 294.524" fill="#DC4F28" bx:origin="-220.993 -16.404"/>
  <path d="M 168.295 293.692 C 168.713 293.715 169.194 292.985 169.397 292.021 C 169.607 291.018 169.453 290.073 169.028 289.929 C 169.019 289.924 169.007 289.921 168.998 289.917 L 167.082 289.457 C 166.557 289.329 165.953 290.159 165.745 291.335 C 165.535 292.516 165.82 293.517 166.352 293.589 C 166.364 293.591 166.377 293.593 166.391 293.594 L 168.295 293.692 Z" fill="#E28D4E" bx:origin="-124.537 -16.457"/>
  <path d="M 169.396 292.022 C 169.188 293.012 168.689 293.751 168.262 293.69 C 167.816 293.625 167.609 292.715 167.821 291.642 C 168.035 290.548 168.586 289.773 169.029 289.929 C 169.452 290.074 169.608 291.016 169.396 292.022" fill="#F5C88A" bx:origin="-272.207 -18.598"/>
  <path d="M 248.701 281.709 C 250.232 281.865 251.534 281.368 251.606 280.593 C 251.613 280.526 251.61 280.459 251.599 280.393 C 251.578 280.289 251.541 280.191 251.487 280.101 L 251.364 279.882 L 250.988 279.235 L 250.839 278.977 C 250.559 278.496 249.74 278.087 248.743 277.985 C 248.648 277.975 248.553 277.968 248.459 277.966 C 247.36 277.922 246.459 278.286 246.333 278.839 L 246.081 279.933 C 246.073 279.962 246.069 279.993 246.067 280.024 C 246.059 280.091 246.062 280.16 246.076 280.227 C 246.202 280.925 247.306 281.564 248.701 281.709" fill="#376EE3" bx:origin="-100.133 -15.479"/>
  <path d="M 248.517 280.319 C 247.241 280.185 246.258 279.56 246.322 278.914 C 246.382 278.27 247.467 277.855 248.744 277.985 C 250.018 278.118 251 278.743 250.937 279.39 C 250.876 280.031 249.791 280.449 248.517 280.319" fill="#00CEFF" bx:origin="-120.261 -24.537"/>
  <path d="M 246.745 249.484 L 244.404 249.811 L 242.127 250.128 L 244.045 253.754 L 248.926 253.183 L 246.745 249.484 Z" fill="#FFFBDD" bx:origin="-81.118 -7.016"/>
  <path d="M 247.633 255.587 L 250.188 255.321 L 248.925 253.183 L 244.044 253.755 L 245.153 255.843 L 247.633 255.587 Z" fill="#0366D6" bx:origin="-90.077 -12.653"/>
  <path d="M 239.904 250.439 L 237.741 250.74 L 238.27 251.853 L 240.468 251.561 L 239.904 250.439 Z" fill="#6A737D" bx:origin="-200.63 -21.862"/>
  <path d="M 240.394 256.341 L 242.741 256.098 L 241.705 254.028 L 239.426 254.294 L 240.394 256.341 Z" fill="#34D058" bx:origin="-165.555 -14.917"/>
  <path d="M 241.704 254.028 L 240.469 251.561 L 238.269 251.853 L 239.424 254.293 L 241.704 254.028 Z" fill="#79B8FF" bx:origin="-159.435 -11.726"/>
  <path d="M 235.889 256.812 L 238.11 256.579 L 237.602 255.443 L 235.415 255.687 L 235.889 256.812 Z" fill="#FFDF5D" bx:origin="-202.153 -26.236"/>
  <path d="M 233.578 251.321 L 234.037 252.415 L 236.125 252.14 L 235.633 251.036 L 233.577 251.321 L 233.578 251.321 Z" fill="#FFEBDA" bx:origin="-213.092 -22.85"/>
  <path d="M 235.414 255.687 L 237.601 255.444 L 236.126 252.138 L 234.038 252.415 L 235.414 255.687 Z" fill="#FB8532" bx:origin="-152.517 -9.189"/>
  <g transform="matrix(1, 0, 0, 1, -20.833334, 2.717391)" bx:origin="-1.77 0.315">
    <path d="M 312.876 208.659 C 309.395 207.81 305.666 207.401 301.923 207.401 C 301.779 207.401 301.637 207.401 301.494 207.404 M 287.346 211.403 C 283.209 214.345 281.025 218.571 280.482 222.929 C 279.786 228.497 280.813 236.407 279.149 239.4 C 276.489 242.895 277.819 246.554 287.636 251.713 C 297.452 256.869 314.847 255.955 320.246 251.213 C 326.479 245.739 331.376 237.265 331.376 228.879 C 331.376 223.939 329.806 219.926 327.169 216.769 M 136.018 204.952 C 139.467 205.095 143.018 205.683 146.483 206.642 C 146.931 206.766 147.367 206.896 147.794 207.032 M 160.92 216.463 C 162.959 219.905 163.543 223.717 163.013 227.318 C 162.203 232.869 159.105 240.221 159.912 243.548 C 161.548 247.625 159.289 250.8 148.455 253.159 C 137.619 255.514 123.328 252.315 115.007 243.726 C 109.235 237.766 110.14 227.586 112.373 219.503 C 113.637 214.921 116.076 211.554 119.27 209.22 M 272.684 237.996 C 276.221 237.623 280.608 237.36 283.426 240.11 M 272.339 242.196 C 276.028 242.112 279.659 241.365 283.292 242.733" stroke="#0366D6" stroke-width="1.092" stroke-miterlimit="10" style="fill: none;"/>
    <path style="stroke: rgb(0, 0, 0); fill: none;" d="M 119.207 240.822 C 119.207 237.657 116.989 235.406 116.989 232.918 C 116.989 226.362 120.155 217.113 123.643 213.487 C 125.741 211.306 129.49 210.703 131.565 208.547 C 132.633 207.437 135.355 208.882 136.634 208.218 C 138.04 207.487 142.803 206.319 144.555 207.23 C 147.918 208.978 152.044 209.954 153.743 213.487 C 154.051 214.127 157.667 213.942 158.18 214.475 C 159.051 215.381 160.019 216.387 160.714 217.11 C 161.541 217.97 162.629 224.657 161.982 226.002 C 161.299 227.421 160.306 226.142 160.714 226.99 C 161.281 228.167 162.303 228.976 162.933 230.284 C 163.008 230.44 162.806 232.72 163.249 232.259 C 163.675 231.817 162.687 229.296 162.299 229.296 C 162.184 229.296 162.446 233.777 162.299 234.235 C 161.545 236.586 160.204 240.365 158.497 242.14 C 155.335 245.426 153.778 248.154 149.624 251.032 C 147.446 252.541 144.207 251.213 142.02 252.349 C 140.404 253.19 136.71 252.122 135.05 251.69 C 128.035 249.867 124.8 246.363 119.841 243.786 C 119.108 243.406 117.991 239.123 118.89 238.188 C 119.26 237.803 119.472 237.255 119.841 236.871 C 120.388 236.301 122.754 235.818 121.742 236.871 C 121.207 237.427 116.383 239.534 118.573 241.81 C 119.431 242.701 120.303 244.445 122.376 244.445 C 123.081 244.445 126.178 244.67 126.178 244.116" transform="matrix(0.999997, -0.002372, 0.002372, 0.999997, -0.544644, 0.333133)"/>
    <path style="stroke: rgb(0, 0, 0); fill: none;" d="M 131.846 216.792 C 132.397 215.075 137.322 213.406 138.182 212.512" transform="matrix(0.999997, -0.002372, 0.002372, 0.999997, -0.508775, 0.320857)"/>
    <path style="stroke: rgb(0, 0, 0); fill: none;" d="M 149.24 213.923 C 149.613 215.085 151.776 216.392 153.359 215.57 C 154.167 215.15 152.408 213.873 152.408 212.935 C 154.143 205.723 143.916 200.749 138.151 200.749 C 136.525 200.749 133.504 200.127 132.131 201.078 C 128.388 203.673 123.708 204.468 120.09 206.348 C 115.647 208.657 113.933 215.054 110.268 218.862 C 108.866 220.32 110.578 224.476 109.635 226.438 C 106.027 233.937 113.377 245.54 120.09 245.54" transform="matrix(0.999997, -0.002372, 0.002372, 0.999997, -0.528693, 0.311662)"/>
    <path style="stroke: rgb(0, 0, 0); fill: none;" d="M 135.672 216.789 C 133.114 216.789 125.973 223.305 128.067 227.657 C 129.114 229.835 131.303 231.645 133.137 232.598 C 135.353 233.75 139.042 232.058 140.107 230.951 C 142.893 228.055 147.457 226.142 144.543 220.083 C 142.132 215.071 136.084 218.766 131.553 218.766" transform="matrix(0.999997, -0.002372, 0.002372, 0.999997, -0.533046, 0.324609)"/>
    <path style="stroke: rgb(0, 0, 0); fill: none;" d="M 154.673 213.781 C 147.856 215.552 144.456 226.049 151.821 228.601 C 157.78 230.666 165.612 222.437 161.961 216.744 C 160.74 214.841 155.046 212.075 153.089 214.11" transform="matrix(0.999997, -0.002372, 0.002372, 0.999997, -0.524156, 0.368963)"/>
    <path style="stroke: rgb(0, 0, 0); fill: none;" d="M 148.36 231.808 C 149.312 232.129 156.041 234.82 154.025 230.732 C 153.556 229.784 151.564 229.675 150.838 228.939" transform="matrix(0.999997, -0.002372, 0.002372, 0.999997, -0.547402, 0.359723)"/>
    <path style="stroke: rgb(0, 0, 0); fill: none;" d="M 145.848 239.484 C 145.848 240.299 147.456 246.375 149.017 244.753 C 149.259 244.502 149.334 240.142 149.334 240.142 C 149.334 240.142 149.745 244.046 151.551 243.107 C 154.406 241.623 150.284 237.491 150.284 236.52" transform="matrix(0.999997, -0.002372, 0.002372, 0.999997, -0.570695, 0.354587)"/>
    <path style="stroke: rgb(0, 0, 0); fill: rgb(85, 156, 218);" d="M 294.851 211.318 C 294.851 208.587 298.755 201.324 299.865 200.215 C 298.3 203.345 301.642 212.02 303.805 214.183 C 304.401 214.78 305.468 213.825 306.312 213.825 C 309.058 211.078 314.521 209.183 317.415 207.736 C 318.144 207.371 320.048 206.008 320.638 206.304 C 320.806 206.388 320.638 209.309 320.638 209.527 C 320.638 211.618 318.593 216.585 317.415 217.764 C 317.348 217.831 315.982 221.214 315.982 220.988 C 315.982 220.319 319.751 220.63 320.279 220.63 C 323.694 220.63 328.732 219.411 331.024 221.704 C 331.263 221.944 333.878 222.073 332.815 223.137 C 329.797 226.154 324.209 227.813 322.428 231.374 C 322.176 231.878 318.524 232.842 318.489 232.807 C 317.285 231.603 321.31 231.121 322.071 231.374 C 324.302 232.118 327.655 233.59 328.517 235.314 C 328.962 236.204 326.742 236.622 326.368 236.746 C 323.968 237.546 320.83 238.703 319.205 240.328 C 319.08 240.453 316.697 241.044 316.697 241.044 C 316.697 241.044 323.861 246.941 323.861 248.207 C 323.861 248.449 320.111 247.554 319.922 247.491 C 319.204 247.252 314.549 247.134 314.549 246.059 C 314.549 245.737 315.598 247.824 315.623 247.849 C 315.78 248.006 319.269 252.115 318.489 252.505 C 316.428 253.535 312.847 249.193 311.325 250.715 C 308.182 253.858 306.841 256.087 300.581 256.087 C 300.008 256.087 297.201 256.647 296.641 256.087 C 295.376 254.822 293.309 255.261 291.986 253.938 C 291.126 253.078 290.362 250.082 289.479 249.64 C 287.351 248.576 286.92 249.589 285.181 247.849 C 284.301 246.97 285.538 240.328 285.538 240.328 C 285.538 240.328 283.414 241.068 283.032 240.686 C 282.26 239.914 278.376 238.515 278.376 237.463 C 278.376 237.115 285.835 235.969 284.106 234.24 C 282.182 232.316 277.915 231.63 276.227 229.941 C 275.984 229.699 273.361 229.235 273.361 228.509 C 273.361 227.15 282.404 227.612 280.883 224.569 C 279.467 221.737 272.645 218.308 272.645 214.541 C 272.645 213.586 274.555 214.541 275.51 214.541 C 276.522 214.541 285.035 215.549 285.181 215.257 C 285.556 214.505 283.788 213.188 283.389 212.392 C 282.499 210.611 282.315 205.07 282.315 203.08 C 282.315 202.881 287.005 205.604 287.687 205.945 C 289.519 206.861 293.231 208.265 294.492 209.527 C 295.247 210.282 295.529 207.654 295.925 206.661 C 296.642 204.869 297.585 201.778 298.79 200.573 C 299.587 199.777 301.656 197.655 301.656 198.782 C 301.656 199.907 300.28 200.028 300.581 200.931 C 301.889 204.857 303.297 207.795 304.879 210.96 C 304.979 211.16 305.063 212.75 305.595 212.75 C 306.291 212.75 306.69 211.676 307.386 211.676"/>
    <path style="stroke: rgb(0, 0, 0); fill: none;" d="M 284.106 234.956 C 278.639 218.555 293.729 209.862 306.669 216.332 C 310.521 218.258 312.113 223.35 313.474 227.435 C 314.113 229.35 313.597 232.213 314.907 233.523 C 315.487 234.103 317.723 233.14 318.489 233.523 C 324.629 236.593 316.548 240.271 315.982 241.402 C 315.02 243.326 314.002 251.073 311.325 251.073"/>
    <path style="stroke: rgb(0, 0, 0); fill: none;" d="M 294.851 228.867 C 295.19 228.189 295.574 227.607 296.011 227.099 C 296.684 225.927 297.828 224.813 298.568 224.168 C 299.299 223.531 299.862 223.287 300.717 223.093 C 301.72 222.867 303.164 222.737 304.299 223.093 C 305.499 223.471 306.951 224.258 307.701 225.421 C 308.542 226.725 309.066 229.278 308.775 230.794 C 308.516 232.147 307.673 233.352 306.447 234.196 C 304.96 235.221 301.726 236.234 300.001 235.987 C 299.341 235.893 298.722 235.635 298.174 235.27 C 296.06 234.351 293.914 230.739 294.851 228.867 Z"/>
    <path style="fill: rgb(216, 216, 216); stroke: rgb(0, 0, 0);" d="M 215.58 216.486 C 217.807 214.258 223.587 218.642 225.543 220.109 C 232.341 225.207 243.223 232.354 248.188 237.319"/>
    <ellipse style="stroke: rgb(0, 0, 0); fill: none;" cx="288.404" cy="231.912" rx="5.014" ry="4.835"/>
    <path style="stroke: rgb(0, 0, 0); fill: none;" d="M 294.135 224.211 C 294.135 227.733 294.151 232.755 293.06 236.03 C 292.944 236.376 292.374 239.448 292.702 239.612 C 294.002 240.261 298.074 238.346 298.074 236.388"/>
    <path style="stroke: rgb(0, 0, 0); fill: none;" d="M 286.613 241.761 C 293.424 244.031 300.541 241.422 305.595 238.895 C 306.483 238.452 311.044 238.409 311.325 239.254 C 313.884 246.929 298.726 252.484 292.343 250.356 C 289.889 249.538 280.948 245.635 285.538 241.044 C 286.784 239.799 288.046 240.802 288.046 242.477 C 287.449 242.955 286.796 243.369 286.255 243.91 C 285.907 244.257 287.339 243.92 287.687 244.268 C 288.569 245.15 288.858 243.91 289.837 243.91 C 290.224 243.91 290.996 244.899 291.269 244.626 C 291.57 244.325 290.914 242.654 291.269 242.477 C 292.954 241.634 294.536 244.94 295.209 244.268 C 295.566 243.91 294.851 242.477 295.209 242.119 C 296.422 240.906 298.074 244.425 298.074 241.761 C 298.074 240.693 298.752 245.38 299.507 244.626 C 300.204 243.928 300.94 240.01 300.94 238.895 C 300.94 238.403 301.077 239.888 301.297 240.328 C 301.478 240.689 303.709 242.668 303.805 242.477 C 304.368 241.35 303.365 240.051 304.52 238.895 C 305.299 238.117 306.043 240.552 307.028 241.044 C 307.455 241.258 308.819 237.414 308.819 236.746 C 308.819 235.911 308.554 238.461 308.819 239.254 C 309.025 239.873 310.61 241.541 310.61 239.97"/>
    <path style="fill: rgb(216, 216, 216); stroke: rgb(0, 0, 0);" d="M 292.343 248.923 C 292.343 244.712 295.311 250.126 295.566 249.998 C 297.271 249.146 296.917 249.282 299.148 249.282 C 299.746 249.282 299.148 247.491 299.148 247.491 C 299.148 247.491 301.624 248.923 302.372 248.923 C 302.445 248.923 302.252 246.537 302.372 246.417 C 303.058 245.73 305.88 248.281 306.312 247.849 C 306.58 247.582 305.953 244.626 305.953 244.626 C 305.953 244.626 307.633 246.417 308.102 246.417"/>
    <path style="stroke: rgb(0, 0, 0); fill: none;" d="M 295.925 250.356 C 295.925 250.639 297.025 254.987 298.432 253.58 C 298.464 253.548 298.432 251.431 298.432 251.431 C 298.432 251.431 299.878 257.865 301.297 256.445 C 301.302 256.44 300.223 250.715 300.223 250.715 C 300.223 250.715 301.184 252.269 301.656 252.505 C 303.623 253.489 302.591 251.212 303.088 250.715 C 303.26 250.544 308.145 251.833 304.879 248.566"/>
    <path style="stroke: rgb(0, 0, 0); fill: none;" d="M 300.94 247.849 C 299.749 247.849 299.108 247.65 298.074 247.133 C 289.852 243.022 302.372 245.085 302.372 247.849"/>
    <path style="stroke: rgb(0, 0, 0); fill: none;" d="M 306.669 220.988 C 303.519 220.988 299.074 220.308 296.283 221.704 C 295.755 221.968 285.052 225.938 284.464 225.644 C 283.987 225.405 285.181 224.745 285.181 224.211 C 287.418 219.736 295.293 220.408 299.148 218.481 C 299.872 218.119 302.522 217.66 303.446 218.123 C 305.312 219.055 305.118 220.988 307.744 220.988"/>
    <path style="stroke: rgb(0, 0, 0); fill: rgb(80, 80, 80);" d="M 142.034 220.814 C 138.838 220.814 132.791 222.127 137.107 226.444 C 139.81 229.147 143.424 224.315 142.737 223.63 C 142.366 223.258 142.502 222.456 142.034 222.222 C 141.769 222.089 137.107 221.518 137.107 221.518 C 137.107 221.518 141.33 221.518 141.33 221.518 C 141.33 221.518 139.219 223.605 139.219 223.63"/>
    <path style="stroke: rgb(0, 0, 0); fill: rgb(80, 80, 80);" d="M 158.632 225.795 C 155.053 225.795 148.279 224.324 153.114 219.487 C 156.143 216.459 160.191 221.872 159.422 222.64 C 159.005 223.057 159.158 223.955 158.632 224.217 C 158.338 224.367 153.114 225.007 153.114 225.007 C 153.114 225.007 157.841 225.007 157.841 225.007 C 157.841 225.007 155.479 222.668 155.479 222.64" transform="matrix(-1, 0, 0, -1, 310.95019, 444.369452)"/>
  </g>
  <text style="white-space: pre; fill: rgb(51, 51, 51); font-family: Arial, sans-serif; font-size: 25.4px;" x="70.653" y="77.9" bx:origin="-0.794 5.495">Coding can be a real pickle, Morty</text>
  <g style="" transform="matrix(0.672493, 0, 0, 0.672493, 223.328384, 30.116745)" bx:origin="-3.795 0.721">
    <path style="stroke: rgb(0, 0, 0); fill: none;" d="M 154.891 258.152 C 154.891 244.024 150.892 230.017 153.986 215.58 C 156.265 204.944 162.98 195.133 169.384 186.594 C 204.076 140.338 247.96 144.928 299.819 144.928 C 309.969 144.928 322.472 146.919 332.428 144.928 C 336.4 144.133 339.367 138.51 343.297 139.493 C 353.024 141.924 362.694 167.794 366.848 175.725 C 376.522 194.193 368.378 175.068 376.812 194.746 C 386.838 218.14 395.935 253.419 384.058 277.174 C 381.459 282.372 380.207 289.047 374.094 291.667 C 359.399 297.965 342.646 296.278 326.993 297.101 C 304.883 298.265 279.283 297.402 258.152 289.855 C 221.053 276.605 190.687 259.964 151.268 259.964 C 148.688 259.964 149.704 264.903 148.551 267.21 C 147.933 268.445 142.733 276.791 144.022 278.08 C 149.469 283.527 159.268 264.493 150.362 264.493"/>
    <text style="fill: rgb(51, 51, 51); font-family: Arial, sans-serif; font-size: 25.4px; font-weight: 700; white-space: pre;" transform="matrix(0.381151, 0, 0, 0.381151, 91.001671, 134.303619)"><tspan x="226.449" y="194.746">But that's where GitHub comes in</tspan><tspan x="226.449" dy="1em"></tspan><tspan x="226.449" dy="1em"></tspan><tspan>.</tspan><tspan x="226.449" dy="1em"></tspan><tspan> It's like having a Mr. Meeseeks for your code </tspan></text>
  </g>
</svg>